<svg xmlns="http://www.w3.org/2000/svg" width="139" height="38" viewBox="0 0 139 38" fill="none"><path d="M97.6602 1.50869C98.3689 1.19408 99.5107 0.7615 100.219 0.584533C101.282 0.289589 102.424 0.2306 112.424 0.210938V8.07611L101.893 8.17443L100.633 8.86263C99.9437 9.23623 99.0185 9.94409 98.5854 10.4357C98.1327 10.9272 97.5815 11.7727 97.3256 12.3036C97.0893 12.8345 96.794 13.8177 96.6956 14.4666C96.5644 15.2531 96.5644 16.0068 96.6956 16.7278C96.8137 17.3177 97.1484 18.2812 97.424 18.8711C97.7193 19.4413 98.4279 20.3458 98.9988 20.8767C99.55 21.4076 100.534 22.0761 102.286 22.9216L112.424 23.0199V30.8851L106.873 30.8261C102.404 30.7671 101.066 30.6885 100.121 30.4329C99.4713 30.2362 98.1327 29.7053 97.1681 29.2334C95.7901 28.5649 95.0027 28.0143 93.6443 26.7362C92.5616 25.6941 91.5774 24.534 91.0065 23.6098C90.4947 22.8037 89.8253 21.3879 89.5104 20.4638C88.9985 19.0087 88.9198 18.4385 88.8411 16.1379C88.7623 13.8963 88.8214 13.2278 89.1757 11.8121C89.4119 10.8879 89.8647 9.5705 90.1994 8.86263C90.534 8.15477 91.1836 7.05364 91.6561 6.40476C92.1089 5.75589 92.916 4.83173 93.4475 4.34016C93.979 3.84858 94.8452 3.14072 95.3964 2.76712C95.9279 2.39352 96.9515 1.84296 97.6602 1.50869Z" fill="#3EDDF6"></path><path d="M114.295 7.93862L114.275 4.04536L114.255 0.1521L115.554 0.270077C116.263 0.329066 117.602 0.62401 118.527 0.918954C119.452 1.23356 120.712 1.80379 121.342 2.17738C121.952 2.55098 122.956 3.25884 123.547 3.75042C124.137 4.24199 125.082 5.22514 126.697 7.23076L127.504 6.12963C127.937 5.52008 128.704 4.67458 129.177 4.24199C129.649 3.78974 130.496 3.14087 131.027 2.76727C131.579 2.39368 132.622 1.80379 133.39 1.46952C134.157 1.11558 135.338 0.682999 136.047 0.525696C136.756 0.348729 137.701 0.211088 139 0.211088V7.97795L138.173 8.13525C137.701 8.23357 136.795 8.5875 136.165 8.92177C135.516 9.2757 134.649 9.94424 134.216 10.4358C133.783 10.9274 133.232 11.7532 132.976 12.3038C132.72 12.8347 132.425 13.7785 132.327 14.3684C132.228 15.0369 132.228 15.9021 132.346 16.6296C132.445 17.2785 132.779 18.2813 133.055 18.8712C133.35 19.4414 134.039 20.3459 134.571 20.8572C135.122 21.3684 135.909 21.9583 136.342 22.1746C136.776 22.4105 137.543 22.6858 139 23.0201V30.9836L137.78 30.8263C137.09 30.728 135.968 30.4724 135.26 30.2561C134.551 30.0398 133.271 29.4892 132.405 29.0566C131.224 28.4471 130.378 27.7982 129.039 26.4611C128.055 25.4976 127.13 24.4948 126.972 24.2392C126.697 23.787 126.697 23.787 125.673 25.065C125.102 25.7729 124.039 26.8544 123.311 27.4443C122.563 28.0538 121.263 28.8797 120.397 29.3122C119.531 29.7252 118.291 30.2167 117.641 30.374C116.992 30.5313 115.948 30.7476 114.196 30.9836V23.0201L114.944 22.9021C115.338 22.8235 116.125 22.5679 116.657 22.3122C117.208 22.0566 117.995 21.565 118.429 21.1914C118.862 20.8375 119.492 20.0903 119.846 19.5594C120.181 19.0285 120.614 18.065 120.811 17.4162C121.047 16.551 121.106 15.8825 121.007 14.86C120.929 14.0145 120.692 13.0903 120.397 12.4414C120.122 11.8909 119.492 10.9667 118.98 10.4162C118.448 9.86559 117.68 9.19705 117.247 8.94143C116.814 8.68582 115.968 8.37121 114.295 7.93862Z" fill="white"></path><path d="M0.118114 24.4948L0.0590568 16.0987L0 7.68301H7.5199L7.55927 14.919C7.59864 21.3291 7.63801 22.2139 7.9333 22.8825C8.13015 23.2954 8.54355 23.7476 8.8782 23.9049C9.19317 24.0622 9.82311 24.1999 10.2562 24.1999C10.6893 24.1999 11.3586 24.0426 11.7523 23.8656C12.146 23.669 12.5791 23.3347 12.6972 23.1184C12.835 22.8628 12.9531 20.2083 13.1106 7.78132H20.5911V30.3937L17.4414 30.4527C15.7091 30.492 14.0949 30.4527 13.839 30.4134C13.524 30.3347 13.4059 30.1577 13.4059 29.8038C13.4059 29.3319 13.3862 29.3122 12.8547 29.6465C12.5594 29.8235 11.831 30.1381 11.2405 30.3347C10.5909 30.551 9.60657 30.6886 8.77978 30.6886C8.01204 30.6886 6.90964 30.551 6.31908 30.374C5.72851 30.1971 4.70486 29.7842 4.07492 29.4499C3.40561 29.096 2.53944 28.4077 2.06699 27.8375C1.61422 27.3066 0.98428 26.3235 0.118114 24.4948Z" fill="white"></path><path d="M69.5098 18.5173C67.4429 12.8347 65.7893 8.07626 65.8483 7.93862C65.9271 7.76166 66.8326 7.70267 72.8564 7.70267L73.2501 8.82346C73.4863 9.45267 74.4312 12.0285 75.3762 14.5847C76.3211 17.1212 77.1872 19.1858 77.2857 19.1662C77.3841 19.1465 78.3684 16.551 81.4196 7.68301H85.0024C88.2505 7.70267 88.6049 7.72233 88.723 8.03694C88.8017 8.25323 87.4041 12.3825 85.278 18.2223L85.1088 18.692C83.193 24.0071 80.8932 30.3879 78.4077 37.492L74.4509 37.5314C71.38 37.5707 70.4941 37.5314 70.4941 37.3347C70.4941 37.1971 71.1241 35.2308 73.3092 28.8403L69.5098 18.5173Z" fill="white"></path><path d="M44.706 6.12963V3.35716V0.604347L51.8912 0.722325V6.03132L44.706 6.12963Z" fill="white"></path><path d="M58.7418 1.39086C59.1355 1.17457 59.8048 0.918954 60.2182 0.82064C60.612 0.722325 62.2065 0.643673 63.7617 0.62401C65.2971 0.62401 66.5964 0.682999 66.6357 0.761651C66.6948 0.840303 66.5964 2.09873 66.4389 3.55379C66.2814 5.02851 66.1042 6.28694 66.0452 6.36559C66.0058 6.44424 65.5727 6.50323 65.0806 6.50323C64.3719 6.50323 64.0766 6.62121 63.7026 6.9948C63.4073 7.30941 63.1908 7.76166 63.1711 8.17458C63.1317 8.56784 63.112 8.98076 63.112 9.1184C63.112 9.2757 63.5845 9.39368 66.0649 9.55099V15.6465L63.112 15.8431L62.9152 30.3937H56.0252L55.9268 15.7448L52.8755 15.6465V9.55099L55.8284 9.35436L55.9268 6.9948C56.0055 5.36278 56.1433 4.39929 56.3796 3.84873C56.5764 3.41615 57.0292 2.76727 57.3638 2.41334C57.7182 2.0594 58.3284 1.58749 58.7418 1.39086Z" fill="white"></path><path d="M30.7883 8.23357C31.241 7.99761 32.1072 7.68301 32.6978 7.54537C33.2883 7.42739 34.312 7.34874 34.9616 7.40773C35.6112 7.44705 36.6743 7.66334 37.3239 7.8993C37.9735 8.11559 38.8594 8.50885 39.2925 8.74481C39.7255 9.00042 40.4736 9.6493 40.946 10.1802C41.4185 10.6914 42.0878 11.7139 43.0327 13.6802V30.3937H35.749L35.6506 23.2167C35.5522 16.9836 35.4931 15.9611 35.1978 15.3122C35.0207 14.8993 34.6663 14.4471 34.4301 14.2701C34.1545 14.0931 33.5639 13.9751 32.9537 13.9751C32.3828 13.9751 31.6741 14.0931 31.3788 14.2308C31.0639 14.3684 30.6702 14.7813 30.493 15.1549C30.178 15.7841 30.1387 16.5903 30.1387 30.2954L29.7056 30.4134C29.4497 30.4724 27.7567 30.492 22.5597 30.3937V7.78132H26.1031C29.6268 7.78132 29.6465 7.80098 29.7056 8.23357C29.7253 8.46952 29.7843 8.66615 29.8434 8.66615C29.9024 8.66615 30.3158 8.46952 30.7883 8.23357Z" fill="white"></path><path d="M44.6666 19.1268C44.6666 12.992 44.7257 7.8993 44.8044 7.82065C44.9029 7.742 46.5368 7.70267 51.8912 7.78132L51.9306 18.9892C51.97 27.7195 51.9306 30.2364 51.7337 30.3544C51.6156 30.433 50.0998 30.492 48.4069 30.492C46.6942 30.492 45.1588 30.4527 45.0013 30.3937C44.7454 30.3151 44.706 28.86 44.6666 19.1268Z" fill="white"></path></svg>